<svg width="852" height="164" viewBox="0 0 852 164" fill="none" xmlns="http://www.w3.org/2000/svg">
<path d="M0.735748 26.2721V13.4532H27.0857V26.2721H0.735748ZM1.162 95.359V33.7766H26.6595V95.359H1.162Z" fill="#3362CC"/>
<path d="M257.496 31.8119C267.154 31.8119 274.284 34.1551 278.886 38.8333C283.478 43.5196 285.783 49.8808 285.783 57.9329V95.359H260.286V61.1215C260.286 57.176 259.317 54.1565 257.38 52.071C255.462 49.9694 252.391 48.9145 248.157 48.9145C243.12 48.9145 239.409 50.3156 237.036 53.1016C234.653 55.8957 233.471 60.3324 233.471 66.4037V95.359H208.438V61.1215C208.438 57.176 207.47 54.1565 205.532 52.071C203.614 49.9694 200.533 48.9145 196.271 48.9145C191.33 48.9145 187.649 50.3156 185.227 53.1016C182.825 55.8957 181.623 60.3324 181.623 66.4037V95.359H156.126V33.7766H181.623V44.2443C183.89 40.3793 187.068 37.3437 191.156 35.1294C195.263 32.9231 200.475 31.8119 206.811 31.8119C213.214 31.8119 218.417 33.0036 222.427 35.387C226.428 37.7705 229.373 41.1362 231.262 45.4683C233.529 41.3697 236.784 38.0764 241.027 35.5803C245.29 33.068 250.773 31.8119 257.496 31.8119Z" fill="#3362CC"/>
<path d="M322.792 96.9694C315.371 96.9694 309.423 95.3509 304.928 92.1059C300.433 88.869 298.185 84.5289 298.185 79.0938C298.185 75.8085 298.863 72.9017 300.239 70.3653C301.634 67.8128 304.153 65.6548 307.795 63.8914C311.457 62.1361 316.708 60.7994 323.528 59.8976L340.268 57.4175C343.726 56.9264 346.022 56.25 347.165 55.3884C348.299 54.5349 348.87 53.319 348.87 51.7489C348.87 49.8647 348.076 48.4153 346.507 47.4008C344.928 46.3701 342.012 45.8548 337.749 45.8548C329.069 45.8548 324.623 48.6488 324.419 54.2289H299.697C300.084 47.6584 303.552 42.2796 310.12 38.0925C316.679 33.9055 325.795 31.8119 337.478 31.8119C349.229 31.8119 357.986 33.7283 363.75 37.545C369.534 41.3456 372.43 46.7807 372.43 53.8424V78.353C372.43 84.6014 372.876 90.27 373.787 95.359H351.854C351.438 93.5553 351.128 91.6147 350.924 89.5293C350.74 87.4277 350.653 85.1006 350.653 82.54C348.764 87.0734 345.518 90.6163 340.927 93.1688C336.354 95.6972 330.309 96.9694 322.792 96.9694ZM332.44 83.152C337.265 83.152 341.208 81.7509 344.259 78.9327C347.33 76.0984 348.87 71.9274 348.87 66.4037V64.0847C347.088 65.1395 345.276 65.9366 343.445 66.4681C341.634 67.0076 339.59 67.5229 337.323 68.0141L333.022 68.8837C329.457 69.6165 326.938 70.5585 325.465 71.718C323.993 72.8614 323.257 74.5041 323.257 76.6459C323.257 78.7717 324.128 80.3982 325.892 81.5094C327.674 82.6045 329.854 83.152 332.44 83.152Z" fill="#3362CC"/>
<path d="M433.331 32.7782H439.531V53.3593H430.502C424.38 53.3593 419.933 54.704 417.172 57.3853C414.402 60.0506 413.026 64.4953 413.026 70.7196V95.359H387.528V33.7766H412.29V46.3379C413.762 41.9817 416.126 38.632 419.381 36.2889C422.636 33.9538 427.286 32.7782 433.331 32.7782Z" fill="#3362CC"/>
<path d="M486.213 95.359C478.696 95.359 472.767 94.441 468.427 92.589C464.087 90.7451 460.996 88.0155 459.166 84.4081C457.325 80.7847 456.414 76.348 456.414 71.1061V49.6553H443.394V39.7996L458.507 34.2598L469.008 18.8642H481.912V33.7766H502.062V49.6553H481.912V78.6106H499.698V95.359H486.213Z" fill="#3362CC"/>
<path d="M628.451 83.152C632.19 83.152 635.251 82.54 637.634 81.3161C640.008 80.0922 641.684 78.5784 642.672 76.7748H667.433C666.629 80.3016 664.818 83.6271 662.008 86.7593C659.189 89.8755 655.043 92.42 649.569 94.3927C644.086 96.3413 636.859 97.3237 627.869 97.3237C620.352 97.3237 613.968 96.4218 608.727 94.6182C603.505 92.8145 599.282 90.3586 596.056 87.2425C592.849 84.1102 590.524 80.5753 589.081 76.6459C587.657 72.7004 586.949 68.626 586.949 64.439C586.949 58.4482 588.383 52.997 591.251 48.0771C594.118 43.1412 598.555 39.2037 604.581 36.2567C610.626 33.2935 618.385 31.8119 627.869 31.8119C635.464 31.8119 641.8 32.7138 646.896 34.5174C651.982 36.3211 656.05 38.7931 659.102 41.9253C662.173 45.0415 664.372 48.5764 665.69 52.5219C667.026 56.4513 667.705 60.5579 667.705 64.8255C667.705 66.8707 667.559 68.5858 667.278 69.9788H611.711C612.486 74.9228 614.278 78.353 617.097 80.2855C619.906 82.2019 623.694 83.152 628.451 83.152ZM628.141 45.7259C623.588 45.7259 619.964 46.6116 617.252 48.367C614.539 50.1304 612.776 53.2305 611.982 57.6752H643.563C643.176 53.8102 641.742 50.8631 639.262 48.8179C636.782 46.7566 633.072 45.7259 628.141 45.7259Z" fill="#3362CC"/>
<path d="M677.17 64.5678C677.17 60.3807 677.925 56.3466 679.456 52.4575C681.006 48.5522 683.409 45.0415 686.664 41.9253C689.919 38.7931 694.2 36.3211 699.529 34.5174C704.876 32.7138 711.396 31.8119 719.097 31.8119C728.087 31.8119 735.508 33.068 741.379 35.5803C747.269 38.0764 751.725 41.4342 754.747 45.6615C757.77 49.8969 759.368 54.5993 759.552 59.7688H734.52C734.132 56.1614 732.747 53.3512 730.374 51.3302C727.99 49.3171 724.338 48.3026 719.407 48.3026C714.079 48.3026 709.962 49.4782 707.046 51.8133C704.12 54.1565 702.667 58.408 702.667 64.5678C702.667 70.7357 704.072 74.9872 706.891 77.3223C709.7 79.6655 713.73 80.833 718.981 80.833C724.193 80.833 728.029 79.754 730.49 77.58C732.97 75.3898 734.413 72.6118 734.83 69.238H759.862C759.649 74.0934 758.09 78.675 755.174 82.991C752.277 87.2908 747.889 90.7532 741.999 93.3943C736.128 96.0112 728.601 97.3237 719.407 97.3237C711.706 97.3237 705.186 96.4218 699.839 94.6182C694.51 92.8145 690.17 90.3586 686.819 87.2425C683.457 84.1102 681.006 80.5995 679.456 76.7103C677.925 72.8051 677.17 68.7549 677.17 64.5678Z" fill="#3362CC"/>
<path d="M823.703 31.8119C833.39 31.8119 840.453 34.1551 844.899 38.8334C849.336 43.5197 851.564 49.8808 851.564 57.9329V95.359H826.067V61.4758C826.067 57.3773 825.03 54.2611 822.967 52.1354C820.893 49.9935 817.638 48.9146 813.202 48.9146C808.058 48.9146 804.076 50.3156 801.267 53.1016C798.448 55.8957 797.043 60.3324 797.043 66.4037V95.359H771.545V9.13727H797.043V45.2428C799.494 41.1201 802.894 37.8591 807.234 35.4515C811.593 33.0278 817.086 31.8119 823.703 31.8119Z" fill="#3362CC"/>
<mask id="mask0_1_214" style="mask-type:luminance" maskUnits="userSpaceOnUse" x="648" y="12" width="50" height="41">
<path d="M648.803 12.5048H697.163V52.7008H648.803V12.5048Z" fill="white"/>
</mask>
<g mask="url(#mask0_1_214)">
<path d="M673.429 53.4496C673.429 42.1848 662.356 32.9812 648.803 32.9812C662.356 32.9812 673.429 23.7697 673.429 12.5048C673.429 23.7697 684.511 32.9812 698.064 32.9812C684.511 32.9812 673.429 42.1848 673.429 53.4496Z" fill="#407BFF"/>
</g>
<path fill-rule="evenodd" clip-rule="evenodd" d="M69.0435 68.5393H38.7798C39.1382 72.968 40.291 77.2195 42.2285 81.2938C44.166 85.3521 47.2273 89.0077 51.4123 92.2447C55.6167 95.4897 61.061 98.0663 67.726 99.9747C74.391 101.883 82.5479 102.841 92.216 102.841C104.974 102.841 115.214 101.488 122.945 98.783C128.029 97.0015 132.197 94.7556 135.447 92.0431C125.482 91.4814 117.208 86.4136 110.285 79.7551C109.826 80.1588 109.319 80.5429 108.762 80.9073C105.633 82.9687 100.295 83.9993 92.7585 83.9993C84.4854 83.9993 78.5857 82.4372 75.0498 79.2969C71.5042 76.1647 69.5085 72.5815 69.0435 68.5393ZM95.7189 61.6726L74.3523 59.7143C63.7348 58.6433 55.5004 55.6802 49.6685 50.8248C43.827 45.9774 40.911 39.3747 40.911 31.0166C40.911 28.5821 41.2033 26.2691 41.788 24.0776C65.5399 24.7071 79.524 36.8355 90.8978 54.3988C91.3897 55.1406 91.8944 55.9073 92.4125 56.6944C93.4585 58.2835 94.5592 59.9556 95.7189 61.6726ZM43.3562 19.8372C45.4199 15.5485 48.7898 11.8026 53.466 8.59963C61.836 2.86654 74.517 0 91.5185 0C103.686 0 113.509 1.44938 121.007 4.34812C128.496 7.23077 134.066 11.0716 137.709 15.8787C141.37 20.6939 143.444 25.9841 143.909 31.7574H113.102C112.531 27.8522 110.438 24.7199 106.825 22.3526C103.231 19.9933 98.1254 18.8097 91.5185 18.8097C85.4929 18.8097 80.8042 19.7437 77.4523 21.6118C76.7688 21.9916 76.1551 22.4 75.6109 22.8369C65.7601 18.736 53.8446 17.5682 43.3562 19.8372ZM95.7301 39.7531C99.3959 44.5956 102.653 49.6659 105.912 54.7402C112.485 64.9733 119.068 75.2226 129.037 83.652C129.202 83.7738 129.366 83.8962 129.531 84.0189C132.28 86.064 135.154 88.2015 138.343 89.2297C138.85 88.6521 139.323 88.0575 139.762 87.4456C143.25 82.5983 144.994 76.9779 144.994 70.6007C144.994 61.7756 141.981 54.8427 135.965 49.7941C129.939 44.7535 120.436 41.734 107.445 40.7435L95.7301 39.7531Z" fill="#407BFF"/>
<path fill-rule="evenodd" clip-rule="evenodd" d="M602.483 22.2966V1.84433H495.572V22.2966H506.137C522.419 16.2565 545.351 22.5991 555.42 35.8789C559.133 40.9501 562.079 46.3327 564.779 51.8193V22.2966H602.483ZM564.779 76.5503C561.281 70.9319 558.456 65.0456 556.032 59.9951C555.653 59.206 555.284 58.4373 554.924 57.6933C549.625 46.4391 543.092 37.1237 533.43 31.0026V99.6933H564.779V76.5503Z" fill="#407BFF"/>
<path d="M98.459 137.916L102.246 154.254L106.785 137.916H109.738L114.277 154.254L118.064 137.916H121.045L115.768 158H112.91L108.275 141.348L103.613 158H100.756L95.5059 137.916H98.459ZM136.714 137.916H151.357V140.377H139.366V146.475H150.454V148.799H139.366V155.607H151.562V158H136.714V137.916ZM188.943 137.916H202.874V140.377H191.663V146.475H201.521V148.867H191.663V158H188.943V137.916ZM219.295 137.916H222.043V158H219.295V137.916ZM241.076 158H237.795L244.986 147.705L238.246 137.916H241.65L246.777 145.6L251.863 137.916H255.103L248.363 147.705L255.431 158H252.054L246.64 149.742L241.076 158ZM271.1 160.857C271.729 160.748 272.171 160.306 272.426 159.531C272.563 159.121 272.632 158.725 272.632 158.342C272.632 158.278 272.627 158.219 272.618 158.164C272.618 158.118 272.609 158.064 272.591 158H271.1V155.02H274.026V157.781C274.026 158.866 273.807 159.818 273.37 160.639C272.932 161.459 272.176 161.965 271.1 162.156V160.857ZM319.802 146.406C320.95 146.406 321.843 146.247 322.481 145.928C323.484 145.426 323.985 144.524 323.985 143.221C323.985 141.908 323.452 141.024 322.386 140.568C321.784 140.313 320.891 140.186 319.706 140.186H314.853V146.406H319.802ZM320.718 155.676C322.386 155.676 323.575 155.193 324.286 154.227C324.733 153.616 324.956 152.878 324.956 152.012C324.956 150.553 324.304 149.56 323.001 149.031C322.308 148.749 321.392 148.607 320.253 148.607H314.853V155.676H320.718ZM312.186 137.916H320.813C323.165 137.916 324.838 138.618 325.831 140.021C326.414 140.851 326.706 141.808 326.706 142.893C326.706 144.16 326.346 145.199 325.626 146.01C325.252 146.438 324.714 146.83 324.013 147.186C325.043 147.577 325.813 148.02 326.323 148.512C327.226 149.387 327.677 150.594 327.677 152.135C327.677 153.429 327.271 154.6 326.46 155.648C325.248 157.216 323.32 158 320.677 158H312.186V137.916ZM346.764 137.916V150.33C346.764 151.788 347.037 153.001 347.584 153.967C348.395 155.425 349.762 156.154 351.686 156.154C353.992 156.154 355.559 155.366 356.389 153.789C356.835 152.932 357.059 151.779 357.059 150.33V137.916H359.82V149.195C359.82 151.665 359.488 153.566 358.822 154.896C357.601 157.321 355.295 158.533 351.904 158.533C348.514 158.533 346.212 157.321 345 154.896C344.335 153.566 344.002 151.665 344.002 149.195V137.916H346.764ZM375.366 137.916H378.538L384.308 147.568L390.077 137.916H393.263L385.675 149.906V158H382.954V149.906L375.366 137.916ZM405.063 160.857C405.692 160.748 406.134 160.306 406.389 159.531C406.526 159.121 406.594 158.725 406.594 158.342C406.594 158.278 406.589 158.219 406.58 158.164C406.58 158.118 406.571 158.064 406.553 158H405.063V155.02H407.989V157.781C407.989 158.866 407.77 159.818 407.332 160.639C406.895 161.459 406.138 161.965 405.063 162.156V160.857ZM447.995 151.52C448.058 152.659 448.327 153.584 448.801 154.295C449.704 155.626 451.294 156.291 453.573 156.291C454.594 156.291 455.523 156.145 456.362 155.854C457.984 155.288 458.795 154.277 458.795 152.818C458.795 151.725 458.454 150.945 457.77 150.48C457.077 150.025 455.993 149.628 454.516 149.291L451.795 148.676C450.018 148.275 448.76 147.833 448.022 147.35C446.746 146.511 446.108 145.258 446.108 143.59C446.108 141.785 446.732 140.304 447.981 139.146C449.23 137.989 450.998 137.41 453.286 137.41C455.391 137.41 457.178 137.921 458.645 138.941C460.122 139.953 460.86 141.576 460.86 143.809H458.303C458.167 142.733 457.875 141.908 457.428 141.334C456.599 140.286 455.191 139.762 453.204 139.762C451.6 139.762 450.447 140.099 449.745 140.773C449.043 141.448 448.692 142.232 448.692 143.125C448.692 144.109 449.102 144.829 449.922 145.285C450.46 145.577 451.677 145.941 453.573 146.379L456.389 147.021C457.747 147.331 458.795 147.755 459.534 148.293C460.81 149.232 461.448 150.594 461.448 152.381C461.448 154.605 460.637 156.195 459.014 157.152C457.401 158.109 455.523 158.588 453.381 158.588C450.884 158.588 448.929 157.95 447.516 156.674C446.103 155.407 445.411 153.689 445.438 151.52H447.995ZM478.033 137.916H492.675V140.377H480.685V146.475H491.773V148.799H480.685V155.607H492.881V158H478.033V137.916ZM509.329 137.916H512.05V155.607H522.221V158H509.329V137.916ZM537.795 137.916H540.516V155.607H550.687V158H537.795V137.916ZM591.76 145.723C592.626 145.112 593.223 144.615 593.551 144.232C594.089 143.613 594.358 142.924 594.358 142.168C594.358 141.576 594.162 141.065 593.77 140.637C593.378 140.208 592.849 139.994 592.184 139.994C591.172 139.994 590.47 140.331 590.078 141.006C589.878 141.352 589.777 141.73 589.777 142.141C589.777 142.697 589.928 143.23 590.229 143.74C590.539 144.251 591.049 144.911 591.76 145.723ZM591.131 156.305C592.143 156.305 593.013 156.072 593.742 155.607C594.472 155.143 595.032 154.623 595.424 154.049L590.885 148.512C589.6 149.368 588.761 150.025 588.369 150.48C587.768 151.164 587.467 151.998 587.467 152.982C587.467 154.049 587.854 154.869 588.629 155.443C589.413 156.018 590.247 156.305 591.131 156.305ZM589.518 146.83C588.67 145.855 588.1 145.035 587.809 144.369C587.526 143.704 587.385 143.061 587.385 142.441C587.385 141.147 587.822 140.076 588.697 139.229C589.572 138.372 590.744 137.943 592.211 137.943C593.606 137.943 594.695 138.34 595.479 139.133C596.263 139.926 596.654 140.874 596.654 141.977C596.654 143.262 596.249 144.387 595.438 145.354C594.964 145.919 594.171 146.57 593.059 147.309L596.723 151.684C596.969 150.954 597.138 150.412 597.229 150.057C597.329 149.692 597.429 149.186 597.529 148.539H599.867C599.712 149.824 599.402 151.059 598.938 152.244C598.473 153.42 598.24 153.894 598.24 153.666L601.809 158H598.637L596.75 155.703C596.003 156.514 595.319 157.107 594.699 157.48C593.615 158.137 592.366 158.465 590.953 158.465C588.866 158.465 587.348 157.904 586.401 156.783C585.453 155.653 584.979 154.382 584.979 152.969C584.979 151.447 585.439 150.175 586.36 149.154C586.925 148.535 587.977 147.76 589.518 146.83ZM639.901 151.52C639.965 152.659 640.233 153.584 640.707 154.295C641.61 155.626 643.2 156.291 645.479 156.291C646.5 156.291 647.429 156.145 648.268 155.854C649.89 155.288 650.702 154.277 650.702 152.818C650.702 151.725 650.36 150.945 649.676 150.48C648.983 150.025 647.899 149.628 646.422 149.291L643.702 148.676C641.924 148.275 640.666 147.833 639.928 147.35C638.652 146.511 638.014 145.258 638.014 143.59C638.014 141.785 638.638 140.304 639.887 139.146C641.136 137.989 642.904 137.41 645.192 137.41C647.297 137.41 649.084 137.921 650.551 138.941C652.028 139.953 652.766 141.576 652.766 143.809H650.209C650.073 142.733 649.781 141.908 649.334 141.334C648.505 140.286 647.097 139.762 645.11 139.762C643.506 139.762 642.353 140.099 641.651 140.773C640.949 141.448 640.598 142.232 640.598 143.125C640.598 144.109 641.008 144.829 641.828 145.285C642.366 145.577 643.583 145.941 645.479 146.379L648.295 147.021C649.653 147.331 650.702 147.755 651.44 148.293C652.716 149.232 653.354 150.594 653.354 152.381C653.354 154.605 652.543 156.195 650.92 157.152C649.307 158.109 647.429 158.588 645.287 158.588C642.79 158.588 640.835 157.95 639.422 156.674C638.009 155.407 637.317 153.689 637.344 151.52H639.901ZM671.005 137.916L674.792 154.254L679.332 137.916H682.285L686.824 154.254L690.611 137.916H693.591L688.314 158H685.457L680.822 141.348L676.16 158H673.302L668.052 137.916H671.005ZM718.27 149.77L715.221 140.896L711.981 149.77H718.27ZM713.799 137.916H716.876L724.163 158H721.182L719.145 151.984H711.202L709.028 158H706.239L713.799 137.916ZM739.777 137.916H748.814C750.601 137.916 752.041 138.422 753.135 139.434C754.228 140.436 754.775 141.849 754.775 143.672C754.775 145.24 754.288 146.607 753.312 147.773C752.337 148.931 750.838 149.51 748.814 149.51H742.498V158H739.777V137.916ZM752.027 143.686C752.027 142.209 751.48 141.206 750.386 140.678C749.785 140.395 748.96 140.254 747.912 140.254H742.498V147.213H747.912C749.133 147.213 750.122 146.953 750.879 146.434C751.644 145.914 752.027 144.998 752.027 143.686Z" fill="black"/>
</svg>
